<svg id="Layer_1" data-name="Layer 1" xmlns="http://www.w3.org/2000/svg" viewBox="0 0 959.69 201.4"><defs><style>.cls-1{fill:#fff;}.cls-2{fill:red;}</style></defs><title>logo1</title><path class="cls-1" d="M155,582.28c4.52,0,7.24,3.39,7.24,10,0,2.94-.68,6.33-2.49,8.14L136,609.88c-6.11,2.49-8.83,3.17-12.67,3.17-4.53,0-9.73-4.75-8.38-15.84l6.57-55.44c1.35-10.41-.68-12.44-3.62-12.44-3.17,0-8.6,2.94-10,15.84L100.44,611h-38L77.81,478c-3.16-.45-5.43-3.85-5.43-8.6a17.12,17.12,0,0,1,4.08-11.09h41.63l-7.24,61.33h.23c10.18-10.41,19.68-16.75,33-16.75,10.18,0,19,8.6,16.74,28.29l-6.11,50.91v.23Z" transform="translate(-62.43 -455.78)"/><path class="cls-1" d="M257.26,582.28c4.3,0,7.24,3.17,7.24,9.73,0,2.94-.68,6.56-2.49,8.37l-23.31,9.28c-6.33,2.49-9.27,3.39-13.12,3.39-4.3,0-9.73-4.75-8.6-14.25l.23-2.72h-.46c-2.94,5.43-12.44,16.75-25.57,16.75-16.29,0-24.89-18.11-24.89-38.25,0-44.35,21.5-71.5,42.54-71.5,9.51,0,13.81,4.75,17.65,10.18h.23l.91-8.15h38L257,581.83v.45ZM224.9,527.52c-.91-2.72-2-5-5.2-5-12.22,0-15.39,43.9-15.39,56.12,0,7,1.13,11.09,5,11.09,5.65,0,9.5-9.51,10.63-18.79Z" transform="translate(-62.43 -455.78)"/><path class="cls-1" d="M319.71,502.17c21,0,28.51,8.83,28.51,17.43,0,5.88-2.71,9.73-8.37,9.73-8.6,0-8.83-10.41-18.33-10.41-3.39,0-6.79,2.94-6.79,7.92,0,12.44,31.23,13.35,31.23,46.16,0,28.29-21.27,41.41-46.62,41.41-18.1,0-31.22-9.73-31.22-24.21,0-6.79,3.62-10.86,9.05-10.86,10.86,0,11.54,15.61,24.21,15.61,4.53,0,8.6-3.39,8.6-10,0-14.93-35.75-12.89-35.75-45.71C274.23,517.79,289.61,502.17,319.71,502.17Z" transform="translate(-62.43 -455.78)"/><path class="cls-1" d="M441.45,582.28c4.3,0,7.24,3.17,7.24,9.73,0,2.94-.68,6.56-2.49,8.37l-23.31,9.28c-6.33,2.49-9.27,3.39-13.12,3.39-4.3,0-9.73-4.75-8.6-14.25l.23-2.72h-.46c-2.94,5.43-12.44,16.75-25.57,16.75-16.29,0-24.89-18.11-24.89-38.25,0-44.35,21.5-71.5,42.54-71.5,9.51,0,13.81,4.75,17.65,10.18h.23l.91-8.15h38l-8.6,76.72v.45Zm-32.36-54.76c-.9-2.72-2-5-5.2-5-12.22,0-15.39,43.9-15.39,56.12,0,7,1.13,11.09,5,11.09,5.65,0,9.5-9.51,10.63-18.79Z" transform="translate(-62.43 -455.78)"/><path class="cls-1" d="M545.76,582.28c4.53,0,7.25,3.39,7.25,10,0,2.94-.68,6.33-2.49,8.14l-23.76,9.5c-6.11,2.49-8.83,3.17-12.68,3.17-4.52,0-9.73-4.75-8.37-15.84l6.56-55.44c1.36-10.41-.67-12.44-3.62-12.44-3.16,0-8.6,2.94-9.95,15.84L491.23,611h-38l8.6-76.94v-.23h-.22c-3.63,0-7.7-3.16-7.7-9.73,0-2.94.68-6.33,2.72-8.14l23.31-9.51c6.33-2.49,9.27-3.17,12.89-3.17,4.76,0,8.83,4.76,8.83,14.26v2h.22c10.19-10.41,19.69-16.75,33-16.75,10.19,0,19,8.6,16.75,28.29l-6.11,50.91v.23Z" transform="translate(-62.43 -455.78)"/><path class="cls-1" d="M642.84,517.56c5.2-6.34,12.67-14.93,25.12-14.93,14.25,0,24.66,14.48,24.66,38.69,0,41.64-20.14,72-56.12,72-22.85,0-41.64-11.32-36.66-54.08L609.35,478c-3.17-.68-5.43-3.85-5.43-8.6A17.13,17.13,0,0,1,608,458.27H649.4L646.91,478Zm11.76,19c0-7.92-1.35-11.09-5-11.09-6.79,0-10.19,10.64-12.68,28.51-1.81,13.13-2.49,21.27-2.49,28.06,0,5.66,1.14,12,5.21,12C650.76,594,654.6,544.94,654.6,536.57Z" transform="translate(-62.43 -455.78)"/><path class="cls-1" d="M786.75,582.28c4.3,0,7.24,3.17,7.24,9.73,0,2.94-.67,6.56-2.49,8.37l-23.3,9.28c-6.34,2.49-9.28,3.39-13.13,3.39-4.3,0-9.73-4.75-8.6-14.25l.23-2.72h-.45c-2.94,5.43-12.45,16.75-25.57,16.75-16.3,0-24.89-18.11-24.89-38.25,0-44.35,21.49-71.5,42.54-71.5,9.5,0,13.8,4.75,17.65,10.18h.22l.91-8.15h38l-8.6,76.72v.45Zm-32.36-54.76c-.9-2.72-2-5-5.2-5-12.22,0-15.39,43.9-15.39,56.12,0,7,1.13,11.09,5,11.09,5.66,0,9.5-9.51,10.64-18.79Z" transform="translate(-62.43 -455.78)"/><path class="cls-1" d="M807.12,533.85c-3.62,0-7.7-3.16-7.7-9.73,0-2.94.68-6.33,2.72-8.14l23.31-9.51c6.33-2.49,9.27-3.17,12.89-3.17,4.76,0,10,4.76,8.83,14.26L836.76,611h-38l8.6-76.94v-.23ZM834,455.78c13.13,0,19.24,7.24,19.24,17.65,0,11.77-7.92,21.28-21.5,21.28-13.35,0-19.23-7-19.23-17.88C812.55,465.06,820.69,455.78,834,455.78Z" transform="translate(-62.43 -455.78)"/><path class="cls-1" d="M939.49,593.82c-5.66,49.78-35.75,63.36-59.29,63.36-18.55,0-27.83-6.34-27.83-17.2,0-5.43,3.17-9.28,7.69-9.28,5,0,8.15,2.27,14.26,2.27,10.18,0,25.8-4.3,26.93-37.11H901c-3.17,5.2-12.22,17-25.79,17-15.17,0-24.9-16.52-24.9-38.25,0-43.67,20.82-71.5,42.77-71.5,8.15,0,13.13,3.84,17.43,10.41h.22l.91-8.38h38Zm-30.55-66.53c-.9-2.49-2-4.75-5.2-4.75-12.22,0-15.39,43.9-15.39,56.34,0,7.7,1.36,10.87,5,10.87,4.75,0,9.28-7,10.63-19Z" transform="translate(-62.43 -455.78)"/><rect class="cls-2" x="923.38" y="94.93" width="36.31" height="36.31"/></svg>